<svg xmlns="http://www.w3.org/2000/svg" viewBox="0 0 100 100"><path d="M91 35.4c4.9-4.6 7.1-8.1 7-10.9-.1-1.3-.7-2.5-1.9-3.4L96 21s-.1 0-.1-.1c-.1-.1-.3-.1-.4-.2-.6-.3-1.2-.6-1.8-.8-.7-.2-1.3-.4-2-.6-2.6-.6-5.3-.6-8.4 0-1 .2-2 .4-3 .7-1 .3-2.1.7-3.2 1.1-.4.2-.8.3-1.2.5h-.1c-1 .5-1.9 1-2.8 1.7l-21.1 16-12.8-1.1c-.8-.1-1.6.2-2.2.6l-2.4 1.8c-.6.4-.9 1.2-.8 1.9.1.7.6 1.4 1.3 1.6l7.1 2.6-13.3 10.2c-1.4 1.1-3.1 1.5-4.9 1.3L9.7 56.6c-.8-.1-1.6.1-2.3.6l-4.6 3.5c-.6.4-.9 1.1-.8 1.8.1.7.5 1.3 1.1 1.6 5.1 2.5 10.6 4.7 16.4 6.5l.4 8.2c0 .9.6 1.7 1.4 2 .3.1.7.2 1 .2.5 0 1-.2 1.4-.5l2.6-2c.7-.5 1.2-1.3 1.4-2.1l.9-3.4h.2c1.7.2 3.2.4 4.8.4 2.5 0 4.9-.3 7.2-1 1.4-.4 2.6-1.1 3.8-2l9.2-7 .7 7.4c.1.7.5 1.4 1.2 1.7.3.1.5.2.8.2.4 0 .9-.1 1.2-.4l2.7-2.1c.5-.4 1-1 1.1-1.7l4.1-14.1L90.3 36c.3-.2.5-.4.7-.6zm-7.6-5.8c-.4.3-.9.5-1.4.4s-.9-.3-1.2-.7l-4.3-5.7c.4-.2.8-.4 1.2-.5 1.1-.4 2.1-.7 3.1-1 1-.3 1.9-.5 2.8-.7.9-.2 1.7-.3 2.5-.4 2.4-.2 4.6.1 6.7.8.1 0 .2.1.3.1.1 0 .2.1.3.1l-10 7.6zM35.7 42.3l2.4-1.9c.2-.2.5-.2.7-.2h.1l10.6.9-5.5 4.3-8.3-3.1zM25.9 76c-.1.4-.4.8-.7 1l-2.6 2c-.2.1-.3.1-.4 0-.1 0-.2-.1-.2-.3l-.4-7.5c1.7.5 3.5 1 5.2 1.4l-.9 3.4zm33.9-7.9c-.1.3-.2.5-.4.6l-2.7 2.1.6.8-.7-.8-.8-8.7 7.3-5.5-3.3 11.5zm29.3-33.7L64.6 52.9c-.1 0-.2.1-.3.2l-10.2 7.7c-.1.1-.2.1-.2.2l-10.5 7.9c-1 .8-2.1 1.3-3.2 1.6-3.4 1-6.9 1.2-11 .6h-.3c-.2 0-.3-.1-.5-.1-.1 0-.1-.1-.2-.1l-7.5-2h-.1c-6-1.8-11.6-4-16.7-6.6l4.6-3.5c.3-.2.6-.3.9-.2l14.2 1.7c2.3.3 4.5-.4 6.3-1.7l14.8-11.2 8-6.1L74.2 25c.2-.1.4-.3.6-.4l4.5 5.9c.6.8 1.5 1.3 2.5 1.5h.5c.8 0 1.6-.3 2.3-.8L95.4 23c.4.4.6.9.6 1.5.1 1.5-.9 4.3-6.3 9.3l-.6.6z"/><path d="M71.7 33.9c-.9-.1-1.9.1-2.6.7-.8.6-1.2 1.4-1.4 2.3-.1.9.1 1.9.7 2.6.7.9 1.8 1.4 2.9 1.4.7 0 1.5-.2 2.1-.7 1.6-1.2 1.9-3.4.7-5-.6-.6-1.4-1.1-2.4-1.3zm.5 4.8c-.7.5-1.7.4-2.2-.3-.2-.3-.4-.7-.3-1.1.1-.4.3-.8.6-1 .3-.2.6-.3.9-.3h.2c.4.1.8.3 1 .6.6.6.5 1.6-.2 2.1zm-9.1 4.9c-.6-.8-1.4-1.2-2.4-1.4-.9-.1-1.9.1-2.6.7-.8.6-1.2 1.4-1.4 2.4-.1.9.1 1.9.7 2.6.7.9 1.8 1.4 2.8 1.4.7 0 1.5-.2 2.1-.7 1.7-1.2 2-3.4.8-5zM61.2 47c-.7.5-1.7.4-2.2-.3-.3-.3-.4-.7-.3-1.2.1-.4.3-.8.6-1 .3-.2.6-.3.9-.3h.2c.4.1.8.3 1 .6.6.7.5 1.7-.2 2.2zm-20 13.2c-.6-.8-1.4-1.2-2.4-1.4-.9-.1-1.9.1-2.6.7-.8.6-1.3 1.4-1.4 2.3-.1.9.1 1.9.7 2.6.6.8 1.4 1.3 2.3 1.4h.5c.8 0 1.5-.2 2.1-.7 1.7-1.1 2-3.4.8-4.9zm-1.9 3.4c-.3.3-.7.4-1.2.3-.4-.1-.8-.3-1-.6-.3-.3-.4-.7-.3-1.2.1-.4.3-.8.6-1 .3-.2.6-.3.9-.3h.2c.4.1.8.3 1 .6.7.7.5 1.6-.2 2.2zm12.9-11.7c-1.2-1.6-3.4-1.9-5-.7-.8.6-1.2 1.4-1.4 2.4-.1.9.1 1.9.7 2.6.6.8 1.4 1.3 2.3 1.4h.5c.8 0 1.5-.2 2.1-.7 1.6-1.2 2-3.4.8-5zm-1.9 3.4c-.3.3-.7.4-1.2.3-.4-.1-.8-.3-1-.6-.3-.3-.4-.7-.3-1.1.1-.4.3-.8.6-1 .3-.2.6-.3.9-.3.5 0 .9.2 1.2.6.6.6.5 1.6-.2 2.1z"/></svg>