<svg xmlns="http://www.w3.org/2000/svg" enable-background="new 0 0 16 16" viewBox="0 0 16 16"><g display="none"><circle cx="8" cy="6" r="1.5" fill="none" stroke="#000" stroke-linecap="round" stroke-linejoin="round" stroke-miterlimit="10"/><path fill="none" stroke="#000" stroke-linecap="round" stroke-linejoin="round" stroke-miterlimit="10" d="M13.3.7c1.4 1.4 2.2 3.2 2.2 5.3s-.8 3.9-2.2 5.3M2.7 11.3C1.3 9.9.5 8.1.5 6s.8-3.9 2.2-5.3"/><path fill="none" stroke="#000" stroke-linecap="round" stroke-linejoin="round" stroke-miterlimit="10" d="M11.9 2.1c1 1 1.6 2.4 1.6 3.9s-.6 2.9-1.6 3.9M4.1 9.9c-1-1-1.6-2.4-1.6-3.9s.6-2.9 1.6-3.9M10.5 3.5c.6.6 1 1.5 1 2.5s-.4 1.8-1 2.5M5.5 8.5C4.9 7.8 4.5 7 4.5 6s.4-1.8 1-2.5"/><line x1="8" x2="8" y1="7.5" y2="15.5" fill="none" stroke="#000" stroke-linecap="round" stroke-linejoin="round" stroke-miterlimit="10"/></g><g display="none"><path d="M10 6c0-1.1-.9-2-2-2S6 4.9 6 6c0 .9.6 1.7 1.5 1.9v7.6C7.5 15.8 7.7 16 8 16s.5-.2.5-.5V7.9C9.4 7.7 10 6.9 10 6zM8 7C7.4 7 7 6.6 7 6s.4-1 1-1 1 .4 1 1S8.6 7 8 7zM13.7.3c-.2-.2-.5-.2-.7 0s-.2.5 0 .7C14.3 2.4 15 4.1 15 6s-.7 3.6-2.1 4.9c-.2.2-.2.5 0 .7.1.1.2.1.4.1s.3 0 .4-.1C15.2 10.1 16 8.1 16 6S15.2 1.9 13.7.3zM1 6c0-1.9.7-3.6 2.1-4.9.2-.2.2-.5 0-.7s-.5-.2-.7 0C.8 1.9 0 3.9 0 6s.8 4.1 2.3 5.7c.1.1.2.1.4.1s.3 0 .4-.1c.2-.2.2-.5 0-.7C1.7 9.6 1 7.9 1 6z"/><path d="M12.2 1.8c-.2-.2-.5-.2-.7 0s-.2.5 0 .7C12.5 3.4 13 4.7 13 6s-.5 2.6-1.5 3.5c-.2.2-.2.5 0 .7.1.1.2.1.4.1s.3 0 .4-.1C13.4 9.1 14 7.6 14 6S13.4 2.9 12.2 1.8zM3 6c0-1.3.5-2.6 1.5-3.5.2-.2.2-.5 0-.7S4 1.6 3.8 1.8C2.6 2.9 2 4.4 2 6s.6 3.1 1.8 4.2c.1.1.2.1.4.1s.3 0 .4-.1c.2-.2.2-.5 0-.7C3.5 8.6 3 7.3 3 6z"/><path d="M10.8 3.2c-.2-.2-.5-.2-.7 0-.2.2-.2.5 0 .7C10.7 4.4 11 5.2 11 6s-.3 1.6-.9 2.1c-.2.2-.2.5 0 .7C10.2 8.9 10.3 9 10.5 9c.1 0 .3 0 .4-.1C11.6 8.1 12 7.1 12 6S11.6 3.9 10.8 3.2zM5 6c0-.8.3-1.6.9-2.1.2-.2.2-.5 0-.7C5.7 3 5.4 3 5.2 3.2 4.4 3.9 4 4.9 4 6s.4 2.1 1.2 2.8C5.3 8.9 5.4 9 5.5 9c.1 0 .3 0 .4-.1.2-.2.2-.5 0-.7C5.3 7.6 5 6.8 5 6z"/></g><circle cx="8" cy="6" r="1.5" fill="#d7dce0"/><path fill="#3e3643" d="M10 6c0-1.1-.9-2-2-2S6 4.9 6 6c0 .9.6 1.7 1.5 1.9v7.6C7.5 15.8 7.7 16 8 16s.5-.2.5-.5V7.9C9.4 7.7 10 6.9 10 6zM8 7C7.4 7 7 6.6 7 6s.4-1 1-1 1 .4 1 1S8.6 7 8 7zM13.7.3c-.2-.2-.5-.2-.7 0s-.2.5 0 .7C14.3 2.4 15 4.1 15 6s-.7 3.6-2.1 4.9c-.2.2-.2.5 0 .7.1.1.2.1.4.1s.3 0 .4-.1C15.2 10.1 16 8.1 16 6S15.2 1.9 13.7.3zM1 6c0-1.9.7-3.6 2.1-4.9.2-.2.2-.5 0-.7s-.5-.2-.7 0C.8 1.9 0 3.9 0 6s.8 4.1 2.3 5.7c.1.1.2.1.4.1s.3 0 .4-.1c.2-.2.2-.5 0-.7C1.7 9.6 1 7.9 1 6z"/><path fill="#3e3643" d="M12.2 1.8c-.2-.2-.5-.2-.7 0s-.2.5 0 .7C12.5 3.4 13 4.7 13 6s-.5 2.6-1.5 3.5c-.2.2-.2.5 0 .7.1.1.2.1.4.1s.3 0 .4-.1C13.4 9.1 14 7.6 14 6S13.4 2.9 12.2 1.8zM3 6c0-1.3.5-2.6 1.5-3.5.2-.2.2-.5 0-.7S4 1.6 3.8 1.8C2.6 2.9 2 4.4 2 6s.6 3.1 1.8 4.2c.1.1.2.1.4.1s.3 0 .4-.1c.2-.2.2-.5 0-.7C3.5 8.6 3 7.3 3 6z"/><path fill="#3e3643" d="M10.8 3.2c-.2-.2-.5-.2-.7 0-.2.2-.2.5 0 .7C10.7 4.4 11 5.2 11 6s-.3 1.6-.9 2.1c-.2.2-.2.5 0 .7C10.2 8.9 10.3 9 10.5 9c.1 0 .3 0 .4-.1C11.6 8.1 12 7.1 12 6S11.6 3.9 10.8 3.2zM5 6c0-.8.3-1.6.9-2.1.2-.2.2-.5 0-.7C5.7 3 5.4 3 5.2 3.2 4.4 3.9 4 4.9 4 6s.4 2.1 1.2 2.8C5.3 8.9 5.4 9 5.5 9c.1 0 .3 0 .4-.1.2-.2.2-.5 0-.7C5.3 7.6 5 6.8 5 6z"/></svg>