<svg xmlns="http://www.w3.org/2000/svg" width="32" height="32"><path d="M11.531 1C9.036 1 7 3.015 7 5.5V8H2.5C1.678 8 1 8.678 1 9.5v20c0 .822.678 1.5 1.5 1.5h28a.5.5 0 0 0 .063 0 .5.5 0 0 0 .03 0 .5.5 0 0 0 .407-.5v-13a.5.5 0 0 0-.5-.5H23V9.5c0-.822-.678-1.5-1.5-1.5h-3.469V6.5a4.497 4.497 0 0 0-3.562-4.406A4.5 4.5 0 0 0 11.53 1zm0 1c.326 0 .64.045.938.125C10.486 2.601 9 4.38 9 6.5V8H8V5.5C8 3.555 9.57 2 11.531 2zm2 1c.17 0 .337.009.5.031.635.632 1 1.496 1 2.469V8H10V6.5C10 4.555 11.57 3 13.531 3zm2.156.75a3.44 3.44 0 0 1 1.344 2.75V8h-1V5.5a4.45 4.45 0 0 0-.343-1.75zM2.5 9h1.594A1.543 1.543 0 0 0 4 9.5c-.002.223-.15.474-.469.625-.32.152-.742.152-1.062 0C2.15 9.972 2.002 9.723 2 9.5c0-.071.007-.127.031-.188.022-.053.088-.114.125-.156.045-.044.096-.1.156-.125A.467.467 0 0 1 2.5 9zm3 0H9v1.594c-.585.205-1 .755-1 1.406 0 .822.677 1.5 1.5 1.5S11 12.822 11 12c0-.651-.415-1.201-1-1.406V9h7.031v1.594A1.48 1.48 0 0 0 16 12c0 .822.677 1.5 1.5 1.5S19 12.822 19 12c0-.64-.398-1.193-.969-1.406V9H21.5c.286 0 .5.214.5.5V17H9.5a.5.5 0 0 0-.5.5V30H5.5a.467.467 0 0 1-.188-.031A.506.506 0 0 1 5 29.5v-20c0-.071.007-.127.031-.188A.506.506 0 0 1 5.5 9zM2 11c.013.007.018.025.031.031.608.289 1.33.289 1.938 0 .013-.006.018-.024.031-.031v18.5c0 .171.04.346.094.5H2.5a.488.488 0 0 1-.5-.5V11zm7.5.5c.282 0 .5.218.5.5 0 .282-.218.5-.5.5A.493.493 0 0 1 9 12c0-.282.218-.5.5-.5zm8 0c.282 0 .5.218.5.5 0 .282-.218.5-.5.5a.493.493 0 0 1-.5-.5c0-.282.218-.5.5-.5zM10 18h20v12H10V18zm6.5 1c-.823 0-1.5.677-1.5 1.5 0 .64.398 1.193.969 1.406V23.5c0 2.485 2.005 4.5 4.5 4.5S25 25.985 25 23.5v-1.594c.585-.205 1-.755 1-1.406 0-.823-.677-1.5-1.5-1.5s-1.5.677-1.5 1.5c0 .651.415 1.201 1 1.406V23.5c0 1.945-1.57 3.5-3.531 3.5a3.474 3.474 0 0 1-3.5-3.5v-1.594A1.48 1.48 0 0 0 18 20.5c0-.823-.677-1.5-1.5-1.5zm0 1c.282 0 .5.218.5.5 0 .282-.218.5-.5.5a.493.493 0 0 1-.5-.5c0-.282.218-.5.5-.5zm8 0c.282 0 .5.218.5.5 0 .282-.218.5-.5.5a.493.493 0 0 1-.5-.5c0-.282.218-.5.5-.5z" color="#000" font-family="sans-serif" font-weight="400" overflow="visible" style="line-height:normal;text-indent:0;text-align:start;text-decoration-line:none;text-decoration-style:solid;text-decoration-color:#000;text-transform:none;block-progression:tb;white-space:normal;isolation:auto;mix-blend-mode:normal;solid-color:#000;solid-opacity:1"/></svg>