<svg xmlns="http://www.w3.org/2000/svg" width="512" height="512" enable-background="new 0 0 512 512" viewBox="0 0 512 512"><path d="m98.749 512c-20.429 0-39.635-7.956-54.08-22.402-29.82-29.82-29.82-78.34 0-108.161l265.89-265.89c18.265-18.265 47.986-18.265 66.25 0 8.849 8.848 13.721 20.613 13.721 33.125s-4.873 24.278-13.721 33.125l-191.572 191.574-21.258-21.258 191.573-191.573c6.544-6.544 6.544-17.191 0-23.735-6.545-6.543-17.19-6.543-23.735 0l-265.89 265.89c-18.099 18.099-18.099 47.547 0 65.646s47.547 18.099 65.646 0l305.236-305.236c14.719-14.719 22.826-34.291 22.826-55.108s-8.107-40.388-22.826-55.108c-14.721-14.719-34.292-22.826-55.109-22.826s-40.388 8.107-55.108 22.826l-230.919 230.919-21.257-21.258 230.918-230.918c20.398-20.398 47.519-31.632 76.366-31.632 28.848 0 55.968 11.234 76.365 31.632 20.398 20.398 31.632 47.519 31.632 76.365 0 28.848-11.234 55.968-31.632 76.365l-305.236 305.236c-14.445 14.446-33.651 22.402-54.08 22.402z"/></svg>