<svg xmlns="http://www.w3.org/2000/svg" enable-background="new 0 0 64 64" viewBox="0 0 64 64"><path d="M61.9,32.66l-7.69-13.91c-0.03-0.05-0.08-0.09-0.11-0.13c-0.04-0.04-0.06-0.09-0.11-0.12c-0.07-0.06-0.14-0.1-0.22-0.13
	c-0.03-0.02-0.06-0.04-0.09-0.06l-13.3-4.52c-0.29-0.1-0.62-0.05-0.88,0.13c-0.25,0.18-0.4,0.48-0.4,0.79v1.1
	c0,0.25-0.01,0.49-0.04,0.74l-5.95-2.48v-3.75c0-0.54-0.43-0.97-0.97-0.97H32c-1.96,0-3.55-1.59-3.55-3.55v-0.3
	c0-1.96,1.59-3.55,3.55-3.55c1.96,0,3.55,1.59,3.55,3.55v1.22c0,0.54,0.43,0.97,0.97,0.97c0.54,0,0.97-0.43,0.97-0.97V5.49
	C37.49,2.46,35.02,0,32,0c-3.02,0-5.49,2.46-5.49,5.49v0.3c0,2.74,2.02,5.02,4.65,5.42v2.87l-6.15,2.82
	c-0.06-0.36-0.09-0.73-0.09-1.1v-1.1c0-0.31-0.15-0.61-0.4-0.79c-0.25-0.18-0.58-0.23-0.88-0.13l-13.3,4.52
	c-0.04,0.01-0.06,0.04-0.1,0.06c-0.08,0.04-0.15,0.07-0.22,0.13c-0.04,0.04-0.07,0.08-0.11,0.13c-0.04,0.04-0.08,0.08-0.11,0.13
	L2.1,32.66c-0.14,0.25-0.16,0.54-0.06,0.81c0.1,0.27,0.31,0.47,0.57,0.57l11.33,4.16v24.83c0,0.54,0.43,0.97,0.97,0.97h34.17
	c0.54,0,0.97-0.43,0.97-0.97V38.2l11.33-4.16c0.27-0.1,0.48-0.31,0.57-0.57C62.05,33.2,62.03,32.91,61.9,32.66z M32.15,15.76
	l6.42,2.68c-1.05,2.6-3.6,4.45-6.57,4.45c-2.84,0-5.29-1.69-6.42-4.11L32.15,15.76z M4.35,32.61l6.24-11.29l3.36,6.91v7.91
	L4.35,32.61z M48.12,62.06H15.88V28c0-0.15-0.03-0.29-0.1-0.42l-3.79-7.8l10.98-3.73c0.14,4.86,4.13,8.77,9.02,8.77
	c4.12,0,7.59-2.77,8.67-6.55c0,0,0.01-0.01,0.01-0.01c0.01-0.02,0-0.03,0.01-0.05c0.19-0.69,0.32-1.42,0.34-2.16l10.98,3.73
	l-3.79,7.8c-0.06,0.13-0.1,0.28-0.1,0.42V62.06z M50.06,36.13v-7.91l3.36-6.91l6.24,11.29L50.06,36.13z"/></svg>