<svg xmlns="http://www.w3.org/2000/svg" width="32" height="32"><g color="#000" font-family="sans-serif" font-weight="400"><path style="line-height:normal;text-indent:0;text-align:start;text-decoration-line:none;text-decoration-style:solid;text-decoration-color:#000;text-transform:none;block-progression:tb;white-space:normal;isolation:auto;mix-blend-mode:normal;solid-color:#000;solid-opacity:1" d="M3.492 1034.355a.5.5 0 0 0-.492.506v14.555c0 1.079.91 1.945 2 1.945h21c1.09 0 2-.866 2-1.945v-14.555a.5.5 0 1 0-1 0v14.555c0 .521-.428.945-1 .945H5c-.572 0-1-.424-1-.945v-14.555a.5.5 0 0 0-.508-.506z" overflow="visible" transform="translate(0 -1020.362)"/><path style="line-height:normal;text-indent:0;text-align:start;text-decoration-line:none;text-decoration-style:solid;text-decoration-color:#000;text-transform:none;block-progression:tb;white-space:normal;isolation:auto;mix-blend-mode:normal;solid-color:#000;solid-opacity:1" d="M3.5 1028.246c-.822 0-1.5.678-1.5 1.5v4c0 .822.678 1.5 1.5 1.5h10.934a.5.5 0 1 0 0-1H3.5a.488.488 0 0 1-.5-.5v-4c0-.286.214-.5.5-.5h7.705a.5.5 0 1 0 0-1H3.5zm15.781 0a.5.5 0 1 0 0 1H27.5c.286 0 .5.214.5.5v4c0 .286-.214.5-.5.5H16.566a.5.5 0 1 0 0 1H27.5c.822 0 1.5-.678 1.5-1.5v-4c0-.822-.678-1.5-1.5-1.5h-8.219z" overflow="visible" transform="translate(0 -1020.362)"/><path fill-rule="evenodd" style="line-height:normal;text-indent:0;text-align:start;text-decoration-line:none;text-decoration-style:solid;text-decoration-color:#000;text-transform:none;block-progression:tb;white-space:normal;isolation:auto;mix-blend-mode:normal;solid-color:#000;solid-opacity:1" d="M14 1028.348v23.013h3v-23.013h-3zm1 1h1v21.013h-1v-21.013z" overflow="visible" transform="translate(0 -1020.362)"/><path style="line-height:normal;text-indent:0;text-align:start;text-decoration-line:none;text-decoration-style:solid;text-decoration-color:#000;text-transform:none;block-progression:tb;white-space:normal;isolation:auto;mix-blend-mode:normal;solid-color:#000;solid-opacity:1" d="M14.582 1028.361c-1.687 0-3.073 1.107-3.582 2.621l-.139-.191a.5.5 0 0 0-.742-.074l-.137.125c.17-.576.414-1.117.772-1.584a.5.5 0 1 0-.793-.61 5.795 5.795 0 0 0-1.203 3.538.5.5 0 0 0 .838.367l.787-.72.47.646a.5.5 0 0 0 .905-.293 2.798 2.798 0 0 1 2.824-2.824.5.5 0 1 0 0-1zm5.49-.138a.5.5 0 0 0-.363.832c.435.507.719 1.12.914 1.773l-.016-.014a.5.5 0 0 0-.709.035l-.242.27c-.467-1.583-1.872-2.758-3.607-2.758a.5.5 0 1 0 0 1 2.796 2.796 0 0 1 2.822 2.824.5.5 0 0 0 .871.334l.565-.627.728.662a.5.5 0 0 0 .836-.369c0-1.438-.53-2.763-1.402-3.781a.5.5 0 0 0-.397-.182z" overflow="visible" transform="translate(0 -1020.362)"/><path style="line-height:normal;text-indent:0;text-align:start;text-decoration-line:none;text-decoration-style:solid;text-decoration-color:#000;text-transform:none;block-progression:tb;white-space:normal;isolation:auto;mix-blend-mode:normal;solid-color:#000;solid-opacity:1" d="M11.316 1021.5c-2.157 0-4 1.708-4 3.873s1.843 3.873 4 3.873h8c2.158 0 4-1.708 4-3.873s-1.843-3.873-4-3.873h-.3c-1.696 0-2.958.903-3.7 2.022-.741-1.12-2.005-2.022-3.7-2.022h-.3zm0 1h.3c1.461 0 2.505.783 3.046 1.738.063.112.123.253.201.422a.5.5 0 0 0 .907 0c.078-.169.138-.31.2-.422.542-.956 1.584-1.738 3.046-1.738h.3c1.632 0 3 1.278 3 2.873 0 1.596-1.368 2.873-3 2.873h-8c-1.631 0-3-1.277-3-2.873 0-1.595 1.369-2.873 3-2.873zm0 1c-1.113 0-2 .846-2 1.873 0 1.027.887 1.873 2 1.873h2.621a.5.5 0 0 0 .481-.637c-.177-.613-.323-1.345-.625-1.878-.205-.363-.426-.695-.791-.922-.365-.228-.812-.309-1.387-.309h-.299zm7.7 0c-.575 0-1.022.081-1.387.309-.365.227-.584.56-.79.921-.3.533-.447 1.266-.624 1.88a.5.5 0 0 0 .48.636h2.621c1.113 0 2-.846 2-1.873 0-1.027-.886-1.873-2-1.873h-.3zm-7.7 1h.3c.481 0 .713.068.859.158.145.091.266.247.447.567.09.16.215.627.33 1.021h-1.936c-.638 0-1-.401-1-.873 0-.471.362-.873 1-.873zm7.7 0h.3c.639 0 1 .402 1 .873 0 .472-.361.873-1 .873h-1.935c.115-.394.24-.861.33-1.021.181-.32.302-.476.447-.567.145-.09.376-.158.858-.158z" overflow="visible" transform="translate(0 -1020.362)"/></g></svg>