<svg xmlns="http://www.w3.org/2000/svg" viewBox="0 0 512 512"><path d="M460.6 429.9H52.1c-8.6 0-16.5-3-22.7-8.9-9.4-8.8-9.8-20.3-9.8-32.2l-6 6H498.6l-6-6c0 8.4.3 16.4-3.7 24.2-5.6 10.4-16.6 16.7-28.3 16.9-7.7.1-7.7 12.1 0 12 14.9-.3 28-7.4 36.5-19.6 7.1-10.1 7.4-21.8 7.4-33.5 0-3.3-2.7-6-6-6H13.5c-3.3 0-6 2.7-6 6 0 8.2-.2 16.2 2.6 24 3.7 10.5 11.6 19.2 21.5 24.3 7.4 3.9 15.5 4.8 23.7 4.8H460.6c7.7 0 7.7-12 0-12z"/><path d="M484.6 382.8H27.4l6 6V110.3c0-13.9 8.2-25.1 22.2-27.8 3.4-.7 7.5-.2 11-.2h380c5.2 0 9.9-.1 15 1.6 11.9 3.9 17 15.7 17 27.3V388.9c0 7.7 12 7.7 12 0V110.4c0-14.3-6.2-26.9-18.5-34.7-7.2-4.5-15.4-5.4-23.6-5.4H59.6c-20.7 0-38.1 17.3-38.1 38.1V389c0 3.3 2.7 6 6 6h457.2c7.6-.2 7.6-12.2-.1-12.2z"/><path d="M449.8 346.2H62.3l6 6V112.8l-6 6h387.5l-6-6V352.2c0 7.7 12 7.7 12 0V112.8c0-3.3-2.7-6-6-6H62.3c-3.3 0-6 2.7-6 6V352.2c0 3.3 2.7 6 6 6h387.5c7.7 0 7.7-12 0-12zM163.4 418.3H348.7c7.7 0 7.7-12 0-12H163.4c-7.7 0-7.7 12 0 12z"/></svg>