<svg xmlns="http://www.w3.org/2000/svg" xmlns:xlink="http://www.w3.org/1999/xlink" width="32" height="32"><defs><linearGradient id="a"><stop offset="0" stop-color="#000092"/><stop offset="1" stop-color="#ff00f3"/></linearGradient><linearGradient id="b" x1="3" x2="27.096" y1="16.581" y2="16.581" gradientUnits="userSpaceOnUse" xlink:href="#a"/></defs><path style="line-height:normal;text-indent:0;text-align:start;text-decoration-line:none;text-decoration-style:solid;text-decoration-color:#000;text-transform:none;block-progression:tb;isolation:auto;mix-blend-mode:normal" fill="url(#b)" fill-rule="evenodd" d="M17.783 4a.5.5 0 0 0-.5.5v.512a3.95 3.95 0 0 0-.422.174l-.359-.36a.5.5 0 0 0-.707 0l-1.06 1.06a.5.5 0 0 0 0 .708l.36.361a3.856 3.856 0 0 0-.173.42h-.514a.5.5 0 0 0-.5.5v1.5a.5.5 0 0 0 .5.5h.512c.05.145.107.286.174.424l-.36.36a.5.5 0 0 0 0 .706l1.06 1.06a.5.5 0 0 0 .708 0l.36-.359c.137.067.277.124.421.174v.51a.5.5 0 0 0 .5.5h1.5a.5.5 0 0 0 .5-.5v-.512c.145-.05.285-.107.422-.174l.361.362a.5.5 0 0 0 .707 0l1.061-1.06a.5.5 0 0 0 0-.708l-.361-.361c.066-.138.125-.277.175-.422h.51a.5.5 0 0 0 .5-.5v-1.5a.5.5 0 0 0-.5-.5h-.512a3.846 3.846 0 0 0-.171-.422l.359-.36a.5.5 0 0 0 0-.706l-1.06-1.06a.5.5 0 0 0-.708 0l-.36.36a3.816 3.816 0 0 0-.423-.175V4.5a.5.5 0 0 0-.5-.5zm.5 1h.5v.338a.5.5 0 0 0 .389.488c.315.072.617.198.89.37a.5.5 0 0 0 .62-.071l.238-.238.353.353-.236.237a.5.5 0 0 0-.07.617c.17.274.294.577.365.892a.5.5 0 0 0 .488.389h.338v.5h-.338a.5.5 0 0 0-.486.39 2.872 2.872 0 0 1-.37.89.5.5 0 0 0 .071.618l.238.239-.353.353-.236-.236a.5.5 0 0 0-.62-.07 2.875 2.875 0 0 1-.89.365.5.5 0 0 0-.39.488v.338h-.5v-.338a.5.5 0 0 0-.39-.486 2.877 2.877 0 0 1-.888-.37.5.5 0 0 0-.62.071l-.238.238-.353-.353.236-.237a.5.5 0 0 0 .07-.619 2.873 2.873 0 0 1-.365-.89.5.5 0 0 0-.488-.391h-.34v-.5h.338a.5.5 0 0 0 .488-.389c.072-.315.196-.615.368-.888a.5.5 0 0 0-.069-.62l-.238-.238.353-.353.237.236a.5.5 0 0 0 .617.07c.274-.17.575-.294.89-.365a.5.5 0 0 0 .391-.488zM8.922 6.342c-.138.002.16-.03-.412.05a1.735 1.735 0 0 0-1.274 1.694v.717C4.86 9.474 3 11.453 3 13.98c0 3.116 2.776 5.479 5.947 5.479 1.543 0 2.526 1.01 2.526 2.055 0 1.046-.982 2.052-2.526 2.052-1.544 0-2.523-1.006-2.523-2.052.005-.531-.208-.995-.537-1.291a1.747 1.747 0 0 0-1.174-.436c-.418 0-.842.138-1.174.436-.331.297-.544.764-.537 1.298.003 2.587 1.9 4.49 4.234 5.174v.73c-.007.536.206 1.004.537 1.302.332.298.757.435 1.174.435.418 0 .842-.137 1.174-.435.332-.298.547-.766.54-1.301v-.733c2.375-.672 4.235-2.65 4.235-5.177 0-3.116-2.777-5.479-5.949-5.479-1.542 0-2.523-1.01-2.523-2.055 0-1.03.957-2.015 2.467-2.043h.119c1.508.03 2.463 1.008 2.463 2.038-.005.53.207.994.537 1.29.331.299.756.436 1.174.436.417 0 .842-.135 1.173-.433.332-.298.545-.765.538-1.3-.002-2.587-1.9-4.49-4.235-5.175V8.08a1.72 1.72 0 0 0-1.738-1.738zm9.611.638c-.903 0-1.644.742-1.644 1.645s.741 1.646 1.644 1.646c.903 0 1.647-.743 1.647-1.646 0-.903-.744-1.645-1.647-1.645zm-9.596.364v.004h.006c.404 0 .723.311.717.716v1.07a.5.5 0 0 0 .389.49c2.15.483 3.846 2.123 3.846 4.353l.002.01c.004.283-.083.43-.207.542a.769.769 0 0 1-.506.178.767.767 0 0 1-.506-.178c-.124-.111-.21-.259-.205-.543v-.01c0-1.64-1.495-2.998-3.444-3.037a.5.5 0 0 0-.039 0h-.08a.5.5 0 0 0-.037 0c-1.953.036-3.45 1.4-3.45 3.043 0 1.664 1.529 3.055 3.524 3.055 2.68 0 4.95 1.96 4.95 4.479 0 2.161-1.666 3.892-3.84 4.35a.5.5 0 0 0-.397.488v1.09c.004.284-.083.43-.207.542a.77.77 0 0 1-.506.18.764.764 0 0 1-.504-.18c-.124-.111-.21-.258-.207-.543V26.36a.5.5 0 0 0-.39-.488C5.695 25.385 4 23.743 4 21.514v-.012c-.004-.284.083-.431.207-.543a.77.77 0 0 1 .506-.18c.194 0 .38.068.504.18.124.111.211.259.207.543v.012c0 1.663 1.529 3.052 3.523 3.052 1.995 0 3.526-1.389 3.526-3.052 0-1.664-1.53-3.055-3.526-3.055C6.268 18.459 4 16.499 4 13.98c0-2.161 1.666-3.89 3.84-4.347a.5.5 0 0 0 .396-.49V8.066a.705.705 0 0 1 .701-.722Zm9.596.636a.645.645 0 1 1 .003 1.29.645.645 0 0 1-.003-1.29zm2.785 5.27a.5.5 0 0 0-.5.5v.895c-.31.096-.61.217-.898.367l-.629-.627a.5.5 0 0 0-.707 0l-1.543 1.54a.5.5 0 0 0 0 .708l.63.63c-.15.289-.273.587-.37.897h-.893a.5.5 0 0 0-.5.5v2.182a.5.5 0 0 0 .5.5h.895c.096.31.219.608.369.896l-.631.631a.5.5 0 0 0 0 .707l1.543 1.541a.5.5 0 0 0 .707 0l.63-.629c.289.151.587.275.897.371v.891a.5.5 0 0 0 .5.5H23.5a.5.5 0 0 0 .5-.5v-.893c.31-.096.608-.219.896-.369l.63.63a.5.5 0 0 0 .706 0l1.543-1.542a.5.5 0 0 0 0-.707l-.629-.63a5.38 5.38 0 0 0 .372-.897h.89a.5.5 0 0 0 .5-.5V18.66a.5.5 0 0 0-.5-.5h-.892a5.381 5.381 0 0 0-.37-.898l.63-.63a.5.5 0 0 0 0-.706l-1.544-1.541a.5.5 0 0 0-.707 0l-.629.629a5.372 5.372 0 0 0-.896-.371v-.893a.5.5 0 0 0-.5-.5zm.5 1H23v.719a.5.5 0 0 0 .389.488c.483.11.945.301 1.365.564a.5.5 0 0 0 .619-.07l.506-.506.836.834-.504.506a.5.5 0 0 0-.072.62c.262.42.453.88.562 1.365a.5.5 0 0 0 .486.39h.721v1.182h-.719a.5.5 0 0 0-.486.388c-.11.484-.3.946-.564 1.366a.5.5 0 0 0 .068.619l.508.508-.836.834-.504-.504a.5.5 0 0 0-.62-.07c-.42.262-.88.451-1.364.56a.5.5 0 0 0-.391.486v.721h-1.182v-.719a.5.5 0 0 0-.388-.486 4.413 4.413 0 0 1-1.366-.565.5.5 0 0 0-.619.069l-.507.506-.836-.834.505-.506a.5.5 0 0 0 .07-.62 4.403 4.403 0 0 1-.56-1.365.5.5 0 0 0-.488-.39h-.72v-1.182h.718a.5.5 0 0 0 .488-.388c.11-.484.301-.946.565-1.366a.5.5 0 0 0-.07-.619l-.508-.508.836-.834.505.504a.5.5 0 0 0 .618.07c.42-.262.883-.451 1.367-.56a.5.5 0 0 0 .39-.486zm.59 3a2.51 2.51 0 0 0-2.498 2.5 2.51 2.51 0 0 0 2.498 2.5 2.51 2.51 0 0 0 2.5-2.5c0-1.372-1.128-2.5-2.5-2.5zm0 1c.826 0 1.5.674 1.5 1.5s-.674 1.5-1.5 1.5a1.502 1.502 0 0 1-1.498-1.5c0-.826.672-1.5 1.498-1.5z" color="#000" font-family="sans-serif" font-weight="400" overflow="visible"/></svg>