<svg xmlns="http://www.w3.org/2000/svg" data-name="Layer 2" viewBox="0 0 45.8 59.74"><path fill="none" stroke="#000" stroke-linecap="round" stroke-linejoin="round" stroke-width="1.5" d="M34.5.75v1.42a7.07 7.07 0 0 1-7.06 7H14.17v2.69a4.14 4.14 0 0 1-3.39 4.07 3.77 3.77 0 0 1-.76.07h-.93V8.07a2.24 2.24 0 0 1 2.24-2.21h1.15v-.88A4.2 4.2 0 0 1 16.69.75Z"/><path fill="none" stroke="#000" stroke-linecap="round" stroke-linejoin="round" stroke-width="1.5" d="M36.19 19.38a3.39 3.39 0 0 1-3.39 3.39v3.76a3.45 3.45 0 0 1-1.64 2.93l-1.61 1-5.61 3.4a2.69 2.69 0 0 1-2.65.08l-5-2.62-3.63-1.89a3.4 3.4 0 0 1-1.85-3v-3.66a3.39 3.39 0 0 1 0-6.78v-.07a4.14 4.14 0 0 0 3.36-4.06V9.22h13.27a7 7 0 0 0 5.36-2.47v9.24a3.39 3.39 0 0 1 3.39 3.39Z"/><path fill="none" stroke="#000" stroke-linecap="round" stroke-linejoin="round" stroke-width="1.5" d="M29.55 30.43v8.63l-5.15 3.43a2.72 2.72 0 0 1-3 0l-5.14-3.43V31.3l5 2.62a2.69 2.69 0 0 0 2.68-.06zm-13.29 8.63L2.63 42.95a2.59 2.59 0 0 0-1.88 2.49v13.55"/><path fill="none" stroke="#000" stroke-linecap="round" stroke-linejoin="round" stroke-width="1.5" d="m29.54 39.06 13.63 3.89a2.59 2.59 0 0 1 1.88 2.49v13.55"/></svg>