<svg xmlns="http://www.w3.org/2000/svg" enable-background="new 0 0 511.303 511.303" viewBox="0 0 511.303 511.303"><path d="M476.388,375.731c1.74-5.234,5.119-25.793,5.119-44.48c0-77.198-44.168-146.524-112.946-178.035v-16.487
		c0-4.142-3.357-7.5-7.5-7.5s-7.5,3.358-7.5,7.5v13.86H217.973c0-96.545,0-35.192,0-60.294c12.172,0,123.328,0,135.588,0v11.39
		c0,4.142,3.357,7.5,7.5,7.5s7.5-3.358,7.5-7.5v-18.89c0-4.142-3.357-7.5-7.5-7.5h-37.677V7.5c0-4.142-3.357-7.5-7.5-7.5h-60.235
		c-4.142,0-7.5,3.358-7.5,7.5v67.794h-37.676c-4.142,0-7.5,3.358-7.5,7.5V99.07l-43.522,0.055
		c-10.546-18.453-34.324-31.36-61.92-31.36c-37.35,0-67.735,23.631-67.735,52.677s30.386,52.676,67.735,52.676
		c28.838,0,53.509-14.093,63.263-33.883l42.178-0.054v14.156c-155.379,75.469-146.636,291.246,4.418,357.327
		c0.945,0.417,2.026,0.64,3.023,0.64c1.227,0,150.208,0.004,150.851-0.007C369.382,511.138,453.861,472.312,476.388,375.731z
		 M263.149,15h45.235v10.118h-15.088c-4.143,0-7.5,3.358-7.5,7.5s3.357,7.5,7.5,7.5h15.088v35.177h-45.235V15z M306.327,326.017
		c49.829-7.928,111.585,3.047,156.121,41.72c-54.969,17.611-105.364,2.888-155.342-24.876
		C305.995,342.221,306.327,344.551,306.327,326.017z M465.452,350.757c-46.531-36.728-108.552-47.268-159.125-39.915V165.588h53.164
		C432.591,197.551,473.794,273.698,465.452,350.757z M97.532,158.118c-29.078,0-52.735-16.901-52.735-37.676
		s23.657-37.677,52.735-37.677c32.392,0,59.554,22.073,51.243,46.554C142.188,148.615,118.189,158.118,97.532,158.118z
		 M165.073,124.229c0.286-3.108,0.306-6.118-0.311-10.111l38.204-0.049c0.009,7.374,0.007,4.962,0.007,10.111L165.073,124.229z
		 M114.807,272.376c17.172,4.927,34.217,10.558,50.762,16.78c3.877,1.459,8.202-0.504,9.66-4.38c1.458-3.877-0.503-8.202-4.38-9.66
		c-16.507-6.208-33.5-11.84-50.623-16.789c18.135-41.71,51.866-73.994,91.928-92.738h54.053v26.943c0,4.142,3.358,7.5,7.5,7.5
		s7.5-3.358,7.5-7.5v-26.943h10.12c0,62.168,0,133.174,0,168.339c-3.14-1.794-5.984-3.42-10.12-5.774V227.321
		c0-4.142-3.358-7.5-7.5-7.5s-7.5,3.358-7.5,7.5v92.417c-19.464-10.773-42.001-22.378-62.462-31.094
		c-3.811-1.625-8.216,0.149-9.839,3.96s0.15,8.216,3.96,9.839c40.547,17.274,81.692,42.332,101.889,53.493
		c50.534,28.078,101.761,43.646,158.729,28.579c-15.11,48.987-50.671,90.176-98.974,111.786H212.025
		C127.301,458.398,84.4,362.302,114.807,272.376z"/><path d="M165.296 385.22c-11.766 0-21.338 9.573-21.338 21.339s9.572 21.338 21.338 21.338 21.339-9.572 21.339-21.338S177.062 385.22 165.296 385.22zM165.296 412.897c-3.495 0-6.338-2.843-6.338-6.338s2.843-6.339 6.338-6.339 6.339 2.844 6.339 6.339S168.791 412.897 165.296 412.897zM248.12 466.765c12.439 0 22.559-10.12 22.559-22.559s-10.12-22.559-22.559-22.559c-12.439 0-22.559 10.12-22.559 22.559S235.681 466.765 248.12 466.765zM248.12 436.647c4.168 0 7.559 3.391 7.559 7.559s-3.391 7.559-7.559 7.559-7.559-3.391-7.559-7.559S243.952 436.647 248.12 436.647zM195.419 444.226c-4.142 0-7.505 3.363-7.505 7.505s3.363 7.505 7.505 7.505 7.505-3.363 7.505-7.505S199.561 444.226 195.419 444.226zM157.772 368.893c4.142 0 7.505-3.363 7.505-7.505s-3.363-7.505-7.505-7.505-7.505 3.363-7.505 7.505S153.63 368.893 157.772 368.893zM218.007 406.54c4.142 0 7.505-3.363 7.505-7.505s-3.363-7.505-7.505-7.505-7.505 3.363-7.505 7.505S213.865 406.54 218.007 406.54zM57.042 113.605c-2.236 4.982 1.444 10.573 6.838 10.573 2.863 0 5.598-1.649 6.847-4.431 3.883-8.651 18.257-12.822 25.967-9.661 3.835 1.567 8.213-.271 9.78-4.105C113.108 89.754 68.542 87.987 57.042 113.605zM340.478 45.128c4.143 0 7.505-3.363 7.505-7.505s-3.362-7.505-7.505-7.505-7.505 3.363-7.505 7.505S336.335 45.128 340.478 45.128z"/><circle cx="366.066" cy="22.564" r="7.505"/><circle cx="366.066" cy="52.682" r="7.505"/><path d="M390.655 15.01c4.143 0 7.505-3.363 7.505-7.505S394.797 0 390.655 0s-7.505 3.363-7.505 7.505S386.512 15.01 390.655 15.01zM390.655 75.246c4.143 0 7.505-3.363 7.505-7.505s-3.362-7.505-7.505-7.505-7.505 3.363-7.505 7.505S386.512 75.246 390.655 75.246zM390.655 45.128c4.143 0 7.505-3.363 7.505-7.505s-3.362-7.505-7.505-7.505-7.505 3.363-7.505 7.505S386.512 45.128 390.655 45.128z"/></svg>