<svg xmlns="http://www.w3.org/2000/svg" data-name="Layer 1" viewBox="0 0 128 128"><path d="M122 19H6a6.007 6.007 0 0 0-6 6v70a6.007 6.007 0 0 0 6 6h47v4H43a2 2 0 0 0 0 4h42a2 2 0 0 0 0-4H75v-4h47a6.007 6.007 0 0 0 6-6V25a6.007 6.007 0 0 0-6-6Zm-51 82v4H57v-4Zm53-6a2.003 2.003 0 0 1-2 2H6a2.002 2.002 0 0 1-2-2V25a2.002 2.002 0 0 1 2-2h116a2.003 2.003 0 0 1 2 2Z"/><path d="m77.062 43.61-29 30a2 2 0 1 0 2.876 2.78l29-30a2 2 0 1 0-2.875-2.78zM49.8 64.875a1.994 1.994 0 0 0 1.452-.624l13.043-13.75a2 2 0 1 0-2.902-2.752L48.35 61.499a2 2 0 0 0 1.45 3.376zm24.294-6.667-13.044 13.75a2 2 0 0 0 2.902 2.754l13.044-13.75a2 2 0 1 0-2.902-2.754z"/></svg>