<svg xmlns="http://www.w3.org/2000/svg" enable-background="new 0 0 512 512" viewBox="0 0 512 512"><path d="M497.162 300.169c-105.162-.005-377.568-.017-482.325-.022-7.464 0-13.538 6.074-13.538 13.538v31.834c0 7.464 6.074 13.538 13.538 13.538 47.52-.001 435.026-.009 482.325-.01 7.464 0 13.538-6.074 13.538-13.539v-31.801C510.701 306.243 504.627 300.169 497.162 300.169zM383.424 353.86H25.764v-48.514h357.66V353.86zM14.838 353.86c-4.599 0-8.34-3.741-8.34-8.34v-31.834c0-4.599 3.741-8.34 8.34-8.34h5.728v48.514H14.838zM505.503 345.508c0 4.599-3.741 8.341-8.34 8.341H388.635v-48.482h108.528c4.599 0 8.34 3.741 8.34 8.34V345.508zM13.533 273.838c1.437 0 2.599-1.164 2.599-2.599 0-30.464 24.784-55.25 55.249-55.25h27.33c33.33 0 60.447-27.117 60.447-60.448 0-1.435-1.162-2.599-2.599-2.599-1.437 0-2.599 1.164-2.599 2.599 0 30.464-24.784 55.25-55.249 55.25h-27.33c-33.33 0-60.447 27.117-60.447 60.448C10.934 272.674 12.096 273.838 13.533 273.838z"/></svg>