<svg xmlns="http://www.w3.org/2000/svg" data-name="Layer 2" viewBox="0 0 64 64"><path d="M49 30h.29a2 2 0 0 0 0-4H49zm-4.29-8a2 2 0 0 0 2 2H47v-4h-.29a2 2 0 0 0-2 2zM15 6a3 3 0 0 0-6 0v11h6zm30.33 42.25-4.74 3.55a1 1 0 0 1-1.2 0l-4.73-3.55-4.73 3.55a1 1 0 0 1-1.2 0L25 49v9a5 5 0 0 1-1 3h28a3 3 0 0 0 3-3v-9l-3.74 2.8a1 1 0 0 1-1.2 0l-3-2.25H47z"/><path d="M48 11a14 14 0 1 0 14 14 14 14 0 0 0-14-14Zm1.29 13a4 4 0 0 1 0 8H49v2.43h-2V32h-.29a4 4 0 0 1-4-4h2a2 2 0 0 0 2 2H47v-4h-.29a4 4 0 0 1 0-8H47v-2.43h2V18h.29a4 4 0 0 1 4 4h-2a2 2 0 0 0-2-2H49v4Z"/><path d="M17 18v40a3 3 0 0 0 6 0V47a1 1 0 0 1 1.6-.8l4.73 3.55 4.73-3.55a1 1 0 0 1 1.2 0L40 49.75l4.74-3.55a1 1 0 0 1 1.19 0L47 47v-6a16 16 0 0 1 0-31.9V6a3 3 0 0 0-3-3H16a5.28 5.28 0 0 1 1 3Zm5-6h10v2H22Zm0 6h6.43v2H22Zm0 6h6.43v2H22Zm0 6h7.86v2H22Zm0 6h9.29v2H22Z"/></svg>