<svg xmlns="http://www.w3.org/2000/svg" data-name="Layer 1" viewBox="0 0 24 24"><path d="M22.5,7H17.95a2.48,2.48,0,0,0-.44-1l2.43-4.28a.5.5,0,1,0-.87-.49L16.74,5.34a2.42,2.42,0,0,0-2.49,0L11.93,1.25a.5.5,0,1,0-.87.49L13.49,6a2.48,2.48,0,0,0-.44,1H1.5A1.5,1.5,0,0,0,0,8.5v14A1.5,1.5,0,0,0,1.5,24h21A1.5,1.5,0,0,0,24,22.5V8.5A1.5,1.5,0,0,0,22.5,7Zm-7-1a1.5,1.5,0,0,1,1.41,1H14.09A1.5,1.5,0,0,1,15.5,6ZM23,22.5a.5.5,0,0,1-.5.5H1.5a.5.5,0,0,1-.5-.5V8.5A.5.5,0,0,1,1.5,8h21a.5.5,0,0,1,.5.5ZM15.5,9H3.5A1.5,1.5,0,0,0,2,10.5v10A1.5,1.5,0,0,0,3.5,22h12A1.5,1.5,0,0,0,17,20.5v-10A1.5,1.5,0,0,0,15.5,9ZM16,20.5a.5.5,0,0,1-.5.5H3.5a.5.5,0,0,1-.5-.5v-10a.5.5,0,0,1,.5-.5h12a.5.5,0,0,1,.5.5ZM20,9a2,2,0,1,0,2,2A2,2,0,0,0,20,9Zm0,3a1,1,0,1,1,1-1A1,1,0,0,1,20,12Zm1.5,5h-3a.5.5,0,0,0,0,1h3a.5.5,0,0,0,0-1Zm-2.69-2a.47.47,0,0,0,.38,0,.54.54,0,0,0,.27-.27.4.4,0,0,0,0-.19.47.47,0,0,0-.15-.35.5.5,0,0,0-.7,0,.47.47,0,0,0-.15.35.4.4,0,0,0,0,.19.35.35,0,0,0,.11.16A.36.36,0,0,0,18.81,15ZM21,15a.47.47,0,0,0,.35-.15.45.45,0,0,0,.15-.35.47.47,0,0,0-.15-.35.5.5,0,0,0-.7,0,.47.47,0,0,0-.15.35.4.4,0,0,0,0,.19.35.35,0,0,0,.11.16A.47.47,0,0,0,21,15Zm.5,4h-3a.5.5,0,0,0,0,1h3a.5.5,0,0,0,0-1Zm0,2h-3a.5.5,0,0,0,0,1h3a.5.5,0,0,0,0-1Z"/></svg>