<svg xmlns="http://www.w3.org/2000/svg" viewBox="0 0 32 32"><path d="M21.5 16.5c-.3 0-.5-.2-.5-.5V15.4c0-6-2.3-11.2-5-11.2s-5 5.1-5 11.2v.6c0 .3-.2.5-.5.5s-.5-.2-.5-.5V15.4c0-6.8 2.6-12.2 6-12.2s6 5.3 6 12.2v.6c0 .3-.2.5-.5.5z"/><path d="M16 4.2c-.3 0-.5-.2-.5-.5V2.5c0-.3.2-.5.5-.5s.5.2.5.5v1.2c0 .3-.2.5-.5.5z"/><path d="M21.5 16.5h-.1c-.2 0-.4-.1-.5-.3C20.5 15 18.4 14 16 14c-2.4 0-4.5.9-4.9 2.1-.1.2-.3.3-.5.3H10.3c-.2 0-.3-.2-.3-.3-.4-1.4-1.6-2.4-3.1-2.4-.8 0-1.5.3-2.1.8-.2.1-.4.2-.6.1-.2-.1-.3-.3-.3-.5C4.6 7.9 9.8 3.2 16 3.2c6.2 0 11.4 4.7 12.1 10.9 0 .2-.1.4-.3.5-.2.1-.4.1-.6-.1-.6-.5-1.3-.8-2.1-.8-1.4 0-2.7 1-3.1 2.4 0 .2-.2.3-.3.3h-.2c.1.1.1.1 0 .1zM16 13c2.4 0 4.5.8 5.5 2 .7-1.4 2.1-2.3 3.7-2.3.6 0 1.2.1 1.7.4-1-5.1-5.6-8.9-10.9-8.9-5.3 0-9.9 3.8-10.9 8.9.5-.2 1.1-.4 1.7-.4 1.6 0 3.1.9 3.7 2.3 1-1.1 3.1-2 5.5-2z"/><path d="M13.9 30c-1.5 0-2.6-1.2-2.6-2.6V27c0-.3.2-.5.5-.5s.5.2.5.5v.3c0 .9.7 1.6 1.6 1.6.9 0 1.6-.7 1.6-1.6V13.5c0-.3.2-.5.5-.5s.5.2.5.5v13.8c0 1.5-1.2 2.7-2.6 2.7z"/></svg>